<svg width="150" height="151" viewBox="0 0 150 151" fill="none" xmlns="http://www.w3.org/2000/svg">
<g id="Logo_rhombus">
<g id="rhombus">
<path id="path845" d="M149.601 75.0915L75.1023 149.694L0.604004 75.0915L75.1023 0.488117L149.601 75.0915Z" fill="white" stroke="black" stroke-width="0.707127" stroke-linecap="round" stroke-linejoin="round"/>
</g>
<g id="ice_cream">
<g id="brown">
<path id="path835" d="M74.8514 132.553C72.5336 131.737 71.2044 130.147 69.9311 126.666C67.4558 119.903 67.4497 109.834 69.9138 98.0482C70.2843 96.2744 70.7177 94.3286 70.8774 93.7244L71.167 92.6247L76.4046 92.5659L81.6422 92.5071L81.909 93.5558C82.9369 97.5892 83.9841 103.853 84.4714 108.885C85.4343 118.824 84.3 126.657 81.3187 130.649C79.9244 132.516 77.1048 133.346 74.8514 132.553Z" fill="#FF9955" stroke="black" stroke-width="0.266988"/>
</g>
<g id="green">
<path id="path837" d="M60.0247 89.4857C59.1696 85.07 58.547 81.4092 57.8678 76.8048L57.2614 72.694L57.9071 71.6081C60.5971 67.0844 64.3339 64.8664 67.9256 65.7903C68.4182 65.917 69.8938 66.6504 71.2984 67.3261C76.5152 69.835 80.3502 71.0758 83.6523 70.8643C85.3825 70.7537 85.9493 70.1509 87.3684 68.899C89.2998 67.1963 95.2721 61.9426 95.3578 62.0269C95.4747 62.1422 95.006 67.862 94.4647 72.1507C93.6981 78.2247 92.7629 83.9578 91.3071 91.5028L91.1205 92.4726H75.862H60.6029L60.0247 89.4857Z" fill="#7FFF2A" stroke="black" stroke-width="0.393534"/>
</g>
<g id="yellow">
<path id="path839" d="M89.6087 43.7336C89.3799 43.7333 88.8138 43.75 88.8138 43.75C86.8887 43.8349 85.7668 44.3439 84.2772 45.4103C83.1415 46.2235 82.3458 46.8853 81.1113 48.8092C79.4806 51.3498 78.365 52.6557 76.3368 52.7864C74.6882 52.8925 73.3797 52.1217 70.9064 50.8289C64.414 47.4363 63.5918 47.6779 60.4229 49.2756C59.6727 49.6538 58.2873 50.4686 57.344 51.0863L56.1187 51.6108L56.1646 56.2315C56.281 61.0266 56.5372 70.2007 56.9002 71.8859C56.9422 72.0809 56.9002 71.8859 57.0924 72.5412C57.1008 72.5703 57.6679 71.9426 58.043 71.3571C58.4182 70.7717 59.2321 69.7044 59.9296 69.0101C61.8616 67.087 63.4518 65.9144 65.7367 65.9144C67.3877 65.9144 68.9293 66.5679 71.3516 67.7867C77.5769 70.9189 82.4239 71.7663 85.285 70.6611C85.5276 70.5677 86.0938 70.1475 86.5431 69.7279C87.3235 68.9992 89.9806 66.7727 93.6 63.8148C95.2071 62.5012 95.2859 62.4086 95.4007 61.693C95.5659 60.6655 95.5666 48.7553 95.4021 47.0285L95.1442 45.1123L94.2449 44.838C92.6053 44.067 91.211 43.7356 89.6087 43.7336Z" fill="#DDFF55" stroke="black" stroke-width="0.271569"/>
</g>
<g id="magneta">
<path id="path841" d="M74.5389 52.1218C73.4924 51.8446 72.4438 51.2917 70.0196 50.004C68.8819 49.3998 67.5108 48.7146 67.0723 48.5314C65.3296 47.8031 63.9149 47.6769 62.6134 48.0099C61.4129 48.3171 59.4673 49.3087 56.7656 51.0959C56.8064 51.2592 56.1381 51.5761 56.1381 51.5761C56.0974 51.7665 56.1748 49.8664 56.1748 49.8664C56.4187 45.2562 56.9558 41.1605 57.6869 39.5618C58.5241 37.7311 60.4228 35.855 62.4983 34.8094C64.4477 33.8274 66.4067 33.1864 69.1673 33.1011C71.4601 33.0302 73.3203 33.1942 75.9505 33.6615C78.8578 34.178 79.0355 34.3807 80.6184 34.3882C82.8484 34.3987 83.7802 34.0306 84.3387 33.0368C84.8841 32.066 84.564 30.6106 83.2984 28.8451C82.9845 28.4066 81.8571 26.9721 82.3189 27.5222C82.3887 27.6058 83.7525 27.8801 84.8288 28.5906C87.5329 30.3748 91.4544 34.0243 92.42 35.6576C93.4873 37.4631 94.2857 40.3083 94.7841 43.3199C94.9092 44.0749 95.156 45.1437 95.156 45.2128C95.156 45.2886 94.6528 44.9748 94.341 44.817C92.7912 44.033 90.9428 43.5501 89.223 43.553C85.8359 43.5588 83.4484 44.964 81.0477 48.5923C80.0143 50.1543 79.22 51.3152 78.4541 51.7647C77.4664 52.3449 75.871 52.4748 74.5389 52.1218Z" fill="#FF2A7F" stroke="black" stroke-width="0.274303"/>
</g>
<g id="red">
<path id="path843" d="M57.5237 39.1808C57.5237 39.1808 59.5008 35.2064 59.8554 34.7453C61.5428 32.5512 61.6514 32.6288 62.8427 31.6201C64.7621 29.9947 69.1797 27.0738 71.3143 26.3043C75.3117 24.8635 79.6431 26.1503 79.6431 26.1503C80.7484 26.3535 81.5316 26.7779 82.2643 27.4134C84.0601 29.0097 84.5737 31.1588 84.5744 32.2313C84.5744 32.848 83.8113 33.4763 83.1691 33.7875C82.4585 34.1319 81.797 34.2077 80.1373 34.1591C78.665 34.1162 77.9599 33.9473 75.8958 33.5527C73.4903 33.0927 72.4645 32.8814 70.1122 32.878C68.728 32.876 67.7094 33.0469 67.2644 33.1114C63.8256 33.6101 61.33 34.7468 59.3623 36.6952C59.0634 36.9912 57.5237 39.1808 57.5237 39.1808Z" fill="#FF0000" stroke="black" stroke-width="0.230415"/>
</g>
</g>
</g>
</svg>
