<?xml version="1.0" encoding="UTF-8" standalone="no"?>
<!-- Created with Inkscape (http://www.inkscape.org/) -->

<svg
   xmlns:dc="http://purl.org/dc/elements/1.1/"
   xmlns:cc="http://creativecommons.org/ns#"
   xmlns:rdf="http://www.w3.org/1999/02/22-rdf-syntax-ns#"
   xmlns:svg="http://www.w3.org/2000/svg"
   xmlns="http://www.w3.org/2000/svg"
   xmlns:sodipodi="http://sodipodi.sourceforge.net/DTD/sodipodi-0.dtd"
   xmlns:inkscape="http://www.inkscape.org/namespaces/inkscape"
   width="210mm"
   height="297mm"
   viewBox="0 0 210 297"
   version="1.1"
   id="svg8"
   inkscape:version="0.92.4 (5da689c313, 2019-01-14)"
   sodipodi:docname="logo_small.svg">
  <defs
     id="defs2" />
  <sodipodi:namedview
     id="base"
     pagecolor="#ffffff"
     bordercolor="#666666"
     borderopacity="1.0"
     inkscape:pageopacity="0.0"
     inkscape:pageshadow="2"
     inkscape:zoom="0.98994949"
     inkscape:cx="54.444024"
     inkscape:cy="950.14104"
     inkscape:document-units="mm"
     inkscape:current-layer="layer1"
     showgrid="false"
     inkscape:snap-smooth-nodes="true"
     showguides="true"
     inkscape:guide-bbox="true"
     inkscape:window-width="1366"
     inkscape:window-height="705"
     inkscape:window-x="-8"
     inkscape:window-y="-8"
     inkscape:window-maximized="1">
    <inkscape:grid
       type="xygrid"
       id="grid3715" />
  </sodipodi:namedview>
  <metadata
     id="metadata5">
    <rdf:RDF>
      <cc:Work
         rdf:about="">
        <dc:format>image/svg+xml</dc:format>
        <dc:type
           rdf:resource="http://purl.org/dc/dcmitype/StillImage" />
        <dc:title></dc:title>
      </cc:Work>
    </rdf:RDF>
  </metadata>
  <g
     inkscape:label="Layer 1"
     inkscape:groupmode="layer"
     id="layer1"
     style="display:inline">
    <path
       style="fill:none;stroke:#000000;stroke-width:0.0875;stroke-linecap:butt;stroke-linejoin:miter;stroke-miterlimit:4;stroke-dasharray:none;stroke-opacity:1"
       d="m 16.083916,23.962589 c 0.155322,-0.354103 -1.620153,5.142937 0,8.102864 0.493965,0.902448 1.736512,1.016038 2.315105,0.165363 1.59813,-2.349655 -0.03183,-8.478805 -3e-6,-8.268227"
       id="path3713"
       inkscape:connector-curvature="0"
       sodipodi:nodetypes="cssc" />
    <path
       style="fill:none;stroke:#000000;stroke-width:0.13124999;stroke-linecap:butt;stroke-linejoin:miter;stroke-miterlimit:4;stroke-dasharray:none;stroke-opacity:1"
       d="m 13.934176,23.962589 h 6.614585 c 0,0 2.29963,-10.598808 -3e-6,-12.898438 -2.299632,-2.299632 -4.31495,-2.299632 -6.614582,0 -2.299631,2.29963 0,12.898438 0,12.898438 z"
       id="path4542"
       inkscape:connector-curvature="0"
       sodipodi:nodetypes="cczzc" />
    <path
       style="fill:none;stroke:#000000;stroke-width:0.13124999;stroke-linecap:butt;stroke-linejoin:miter;stroke-miterlimit:4;stroke-dasharray:none;stroke-opacity:1"
       d="m 18.432093,9.575869 c 0,0 2.149738,2.14974 -1.157552,1.488282 -3.307292,-0.66146 -4.001823,1.289843 -4.001823,1.289843 l -0.04594,0.08736"
       id="path4544"
       inkscape:connector-curvature="0"
       sodipodi:nodetypes="czcc" />
    <path
       style="fill:none;stroke:#000000;stroke-width:0.13124999;stroke-linecap:butt;stroke-linejoin:miter;stroke-miterlimit:4;stroke-dasharray:none;stroke-opacity:1"
       d="m 21.507873,13.676911 c -0.06614,-0.03307 -1.9513,-1.289845 -3.108855,0.69453 -1.157552,1.984375 -2.680379,-0.470735 -3.968748,-0.165362 -0.552211,0.130885 -1.488281,0.826822 -1.488281,0.826822"
       id="path4544-8"
       inkscape:connector-curvature="0"
       sodipodi:nodetypes="czac" />
    <path
       style="fill:none;stroke:#000000;stroke-width:0.13124999;stroke-linecap:butt;stroke-linejoin:miter;stroke-miterlimit:4;stroke-dasharray:none;stroke-opacity:1"
       d="m 13.206572,19.630036 c 0,0 0.992188,-2.315105 2.811197,-1.322917 1.819009,0.992187 3.141927,0.992187 3.472657,0.66146 0.33073,-0.33073 1.984375,-1.653648 1.984375,-1.653648 l 0.06615,0.03307"
       id="path4561"
       inkscape:connector-curvature="0"
       sodipodi:nodetypes="czzcc" />
    <path
       style="fill:none;stroke:#000000;stroke-width:0.0875;stroke-linecap:butt;stroke-linejoin:miter;stroke-miterlimit:4;stroke-dasharray:none;stroke-opacity:1"
       d="m 16.083915,23.962589 h 2.315103 v 0"
       id="path4563"
       inkscape:connector-curvature="0" />
    <path
       style="fill:#ff9955;stroke-width:0.19038089;stroke-miterlimit:4;stroke-dasharray:none"
       d="m 16.912193,32.702171 c -0.502975,-0.177078 -0.791477,-0.522225 -1.067911,-1.27758 -0.537198,-1.4679 -0.538524,-3.653127 -0.0038,-6.21119 0.08047,-0.384927 0.174586,-0.807197 0.209151,-0.938377 l 0.06284,-0.23851 1.136758,-0.01277 1.136757,-0.01278 0.05796,0.227432 c 0.223087,0.875415 0.45031,2.234745 0.556157,3.327213 0.20897,2.156792 -0.03735,3.857064 -0.68428,4.723354 -0.302627,0.40524 -0.914597,0.58539 -1.403672,0.413208 z"
       id="path839"
       inkscape:connector-curvature="0" />
    <path
       style="fill:#7fff2a;stroke-width:0.13445432;stroke-miterlimit:4;stroke-dasharray:none"
       d="m 13.806317,23.274544 c -0.185586,-0.958515 -0.320719,-1.75301 -0.468133,-2.75232 l -0.131612,-0.892188 0.140146,-0.235672 c 0.58383,-0.981783 1.39484,-1.463145 2.174371,-1.262645 0.106916,0.0275 0.427135,0.186682 0.732015,0.333327 1.132212,0.544585 1.964524,0.813765 2.681259,0.767915 0.375468,-0.02403 0.498455,-0.154875 0.80657,-0.426532 0.419155,-0.36956 1.71535,-1.509783 1.733868,-1.491498 0.02535,0.02504 -0.0763,1.266438 -0.193775,2.197268 -0.16637,1.318232 -0.3694,2.562625 -0.685263,4.200022 l -0.04059,0.210423 h -3.311687 -3.311685 z"
       id="path841"
       inkscape:connector-curvature="0"
       sodipodi:nodetypes="ssccccccccccccs" />
    <path
       style="fill:#ddff55;stroke-width:0.13336395;stroke-miterlimit:4;stroke-dasharray:none"
       d="m 20.239908,13.296619 c -0.0492,-6.8e-5 -0.170887,0.0035 -0.170887,0.0035 -0.413965,0.01797 -0.6552,0.12575 -0.975388,0.35156 -0.244182,0.17221 -0.415252,0.31236 -0.68071,0.719775 -0.350532,0.537982 -0.590497,0.814532 -1.026487,0.842185 -0.354498,0.02248 -0.635763,-0.140755 -1.167642,-0.41451 -1.39583,-0.71842 -1.572602,-0.667253 -2.253913,-0.32892 -0.161281,0.08009 -0.459155,0.25263 -0.661958,0.38344 l -0.368757,0.23784 0.02157,0.874752 c 0.02501,1.015393 0.173711,2.934973 0.251747,3.2919 0.009,0.04134 0,0 0.04134,0.138788 0.0018,0.0061 0.123715,-0.126703 0.204381,-0.250733 0.08067,-0.12403 0.255669,-0.350037 0.405615,-0.497035 0.415385,-0.407217 0.757285,-0.655525 1.248542,-0.655525 0.35498,0 0.686434,0.138383 1.207253,0.396468 1.338418,0.663242 2.38058,0.842747 2.995673,0.608705 0.05218,-0.01985 0.173895,-0.108768 0.270455,-0.197598 0.167772,-0.15434 0.739067,-0.625832 1.51725,-1.252185 0.3456,-0.27817 0.362465,-0.29777 0.387187,-0.449327 0.0355,-0.217573 0.03565,-2.728153 2.5e-4,-3.093803 l -0.02025,-0.37121 -0.228442,-0.1042 c -0.352515,-0.163265 -0.652368,-0.233442 -0.99678,-0.233855 z"
       id="path843"
       inkscape:connector-curvature="0"
       sodipodi:nodetypes="cccsssscccssccssccscccccc" />
    <path
       style="fill:#ff2a7f;stroke-width:0.09375;stroke-miterlimit:4;stroke-dasharray:none"
       d="m 16.968181,15.070706 c -0.227098,-0.06018 -0.45475,-0.180172 -0.980882,-0.459657 -0.246866,-0.13114 -0.544429,-0.279833 -0.639597,-0.319603 -0.378215,-0.158057 -0.685272,-0.185457 -0.967744,-0.113177 -0.260542,0.06667 -0.682826,0.281877 -1.269171,0.66976 0.0089,0.03543 -0.136183,0.104217 -0.136183,0.104217 -0.0089,0.04134 0.008,-0.371045 0.008,-0.371045 0.05292,-1.00059 0.169518,-1.8895 0.32819,-2.236475 0.181699,-0.397327 0.593777,-0.804515 1.044229,-1.031437 0.423096,-0.21314 0.84827,-0.352258 1.447414,-0.370773 0.497634,-0.01537 0.901376,0.02022 1.472149,0.121635 0.63102,0.112115 0.669555,0.1561 1.013097,0.157713 0.483965,0.0023 0.686245,-0.07759 0.80746,-0.293268 0.118433,-0.21072 0.0489,-0.52658 -0.22573,-0.90976 -0.06822,-0.09517 -0.31284,-0.406497 -0.212612,-0.28711 0.01523,0.01813 0.31109,0.07766 0.544772,0.231865 0.586805,0.387238 1.437873,1.179303 1.64751,1.533803 0.231718,0.391835 0.404875,1.009362 0.51315,1.66297 0.02715,0.163882 0.08068,0.395842 0.08068,0.410832 0,0.01645 -0.109238,-0.05165 -0.17694,-0.08591 -0.336295,-0.170165 -0.737438,-0.274977 -1.110765,-0.274337 -0.735028,0.0013 -1.253338,0.306242 -1.774333,1.093697 -0.224307,0.339028 -0.396665,0.59098 -0.5628,0.688545 -0.214405,0.125915 -0.560782,0.154115 -0.849852,0.07751 z"
       id="path846"
       inkscape:connector-curvature="0"
       sodipodi:nodetypes="ssscccssssscsssssssccscs" />
    <path
       style="fill:#ff0000;stroke-width:0.06629126;stroke-miterlimit:4;stroke-dasharray:none"
       d="m 13.487026,11.863826 c 0.01896,-0.02523 0.229055,-0.49216 0.307666,-0.590942 0.106362,-0.133653 0.444348,-0.475113 0.695608,-0.690103 0.424432,-0.363165 0.837216,-0.6322 1.251393,-0.836062 0.82738,-0.407243 1.680603,-0.579723 2.45393,-0.20934 l 0.191923,0.09192 c 0.02953,-0.03543 0.109965,0.07686 0.163117,0.124113 0.389735,0.346432 0.537973,0.752875 0.538035,0.98564 3.3e-5,0.133862 -0.09477,0.25841 -0.234132,0.325962 -0.15417,0.07473 -0.2977,0.09117 -0.658005,0.08064 -0.319525,-0.0093 -0.472535,-0.04599 -0.920515,-0.131633 -0.522143,-0.09982 -0.744655,-0.14569 -1.255272,-0.14643 -0.300411,-5e-4 -0.5215,0.03665 -0.618061,0.05066 -0.746334,0.10825 -1.287972,0.35496 -1.715047,0.77782 -0.06488,0.06424 -0.20064,0.167752 -0.20064,0.167752 z"
       id="path848"
       inkscape:connector-curvature="0"
       sodipodi:nodetypes="ssssscsccscccss" />
  </g>
</svg>
