<svg width="71" height="100" viewBox="0 0 71 189" fill="none" xmlns="http://www.w3.org/2000/svg">
<g id="logo 1">
<g id="layer1">
<g id="brown">
<path id="path839" d="M33.6113 186.215C29.5875 184.798 27.2794 182.037 25.068 175.994C20.7704 164.251 20.7598 146.769 25.0378 126.305C25.6816 123.225 26.4345 119.847 26.711 118.798L27.2138 116.889L36.3079 116.787L45.4019 116.685L45.8656 118.505C47.6503 125.508 49.4681 136.383 50.3149 145.122C51.9866 162.377 50.0161 175.979 44.8406 182.909C42.4196 186.151 37.5238 187.592 33.6113 186.215V186.215Z" fill="#FF9955" stroke="black" stroke-width="0.73"/>
</g>
<g id="green">
<path id="path841" d="M7.86794 111.439C6.38325 103.771 5.30219 97.4149 4.12288 89.4204L3.06998 82.2829L4.19115 80.3975C8.86178 72.5433 15.3499 68.6924 21.5861 70.2964C22.4414 70.5164 25.0032 71.7898 27.4422 72.963C36.4999 77.3197 43.1584 79.4731 48.8923 79.1063C51.896 78.9141 52.8799 77.8673 55.3449 75.6941C58.6981 72.7376 69.0677 63.6158 69.2158 63.7621C69.4186 63.9624 68.6054 73.8936 67.6656 81.3402C66.3346 91.8861 64.7104 101.841 62.1835 114.94L61.8588 116.624H35.3653H8.87181L7.86794 111.439Z" fill="#7FFF2A" stroke="black" stroke-width="1.076"/>
</g>
<g id="yellow">
<path id="path843" d="M59.2342 31.9998C58.8369 31.9993 57.8542 32.0284 57.8542 32.0284C54.5111 32.1757 52.563 33.0595 49.9773 34.911C48.0053 36.323 46.6239 37.4721 44.4801 40.8126C41.6493 45.2237 39.7114 47.4912 36.1906 47.718C33.3278 47.9023 31.0564 46.5639 26.7611 44.3193C15.4889 38.4287 14.0613 38.8482 8.55928 41.6223C7.25683 42.279 4.85131 43.6937 3.21354 44.7663L1.08604 45.677L1.16572 53.6998C1.36769 62.0253 1.8126 77.9536 2.44279 80.8801C2.51578 81.2191 2.44278 80.8801 2.77664 82.0181C2.7913 82.068 3.77572 80.9792 4.42715 79.9622C5.07859 78.9453 6.49184 77.0922 7.70276 75.8869C11.0573 72.548 13.8183 70.512 17.7855 70.512C20.6522 70.512 23.3289 71.6467 27.5349 73.7628C38.3435 79.2009 46.7596 80.6728 51.7269 78.7538C52.1482 78.591 53.1312 77.8619 53.911 77.1336C55.2658 75.8681 59.8794 72.0022 66.1637 66.8665C68.9547 64.5857 69.0909 64.425 69.2906 63.1824C69.5772 61.3984 69.5784 40.7189 69.2925 37.7208L68.8456 34.3936L67.2842 33.9173C64.4375 32.5786 62.016 32.0032 59.2346 31.9998L59.2342 31.9998Z" fill="#DDFF55" stroke="black" stroke-width="0.742524"/>
</g>
<g id="magneta">
<path id="path846" d="M33.0684 46.5642C31.2516 46.0828 29.4304 45.1229 25.2213 42.887C23.2464 41.8379 20.8659 40.6483 20.1045 40.3301C17.0788 39.0657 14.6224 38.8465 12.3626 39.4247C10.2782 39.9581 6.89997 41.6797 2.20922 44.7828C2.28009 45.0663 1.11975 45.6166 1.11975 45.6166C1.04888 45.9473 1.18338 42.6482 1.18338 42.6482C1.60678 34.6435 2.53952 27.5322 3.8089 24.7564C5.2625 21.5778 8.55912 18.3203 12.1627 16.5049C15.5475 14.7998 18.9489 13.6868 23.742 13.5387C27.7231 13.4157 30.9531 13.7005 35.5192 14.5118C40.5674 15.4087 40.8757 15.7606 43.624 15.7735C47.4957 15.7917 49.114 15.1528 50.0837 13.4273C51.0312 11.7416 50.4749 9.2147 48.2779 6.14926C47.7321 5.38788 45.7751 2.89727 46.577 3.85238C46.6987 3.9974 49.0657 4.47362 50.9351 5.7073C55.6296 8.8052 62.4381 15.1417 64.1152 17.9777C65.969 21.1124 67.3542 26.0526 68.2204 31.2815C68.4376 32.5925 68.8659 34.4482 68.8659 34.5681C68.8659 34.6997 67.992 34.155 67.4504 33.8809C64.76 32.5196 61.5509 31.6811 58.5642 31.6862C52.684 31.6963 48.5375 34.1361 44.3696 40.4358C42.5751 43.148 41.1963 45.1636 39.8672 45.9441C38.1519 46.9515 35.3809 47.1771 33.0684 46.5642V46.5642Z" fill="#FF2A7F" stroke="black" stroke-width="0.75"/>
</g>
<g id="red">
<path id="path848" d="M3.52542 24.0949C3.52542 24.0949 6.95821 17.1942 7.5739 16.3937C10.5037 12.5841 10.6924 12.7188 12.7608 10.9673C16.0934 8.14534 23.7636 3.0737 27.4701 1.73765C34.4104 -0.764041 41.9309 1.47018 41.9309 1.47018C43.8501 1.82311 45.2099 2.55998 46.4825 3.6634C49.6003 6.43485 50.4924 10.1664 50.4929 12.0285C50.4932 13.0994 49.1677 14.1903 48.0529 14.7307C46.8195 15.3286 45.6713 15.4601 42.7888 15.3759C40.2326 15.3012 39.0086 15.008 35.4247 14.3228C31.2476 13.5242 29.4675 13.1573 25.3826 13.1514C22.9793 13.1479 21.2106 13.4446 20.4381 13.5566C14.4674 14.4226 10.1343 16.3963 6.71769 19.7792C6.19868 20.2931 3.52542 24.0949 3.52542 24.0949V24.0949Z" fill="#FF0000" stroke="black" stroke-width="0.63"/>
</g>
</g>
</g>
</svg>
