<?xml version="1.0" encoding="UTF-8" standalone="no"?>
<!-- Created with Inkscape (http://www.inkscape.org/) -->

<svg
   xmlns:dc="http://purl.org/dc/elements/1.1/"
   xmlns:cc="http://creativecommons.org/ns#"
   xmlns:rdf="http://www.w3.org/1999/02/22-rdf-syntax-ns#"
   xmlns:svg="http://www.w3.org/2000/svg"
   xmlns="http://www.w3.org/2000/svg"
   xmlns:sodipodi="http://sodipodi.sourceforge.net/DTD/sodipodi-0.dtd"
   xmlns:inkscape="http://www.inkscape.org/namespaces/inkscape"
   width="210mm"
   height="297mm"
   viewBox="0 0 210 297"
   version="1.1"
   id="svg8"
   inkscape:version="0.92.4 (5da689c313, 2019-01-14)"
   sodipodi:docname="Logo.svg">
  <defs
     id="defs2" />
  <sodipodi:namedview
     id="base"
     pagecolor="#ffffff"
     bordercolor="#666666"
     borderopacity="1.0"
     inkscape:pageopacity="0.0"
     inkscape:pageshadow="2"
     inkscape:zoom="0.7"
     inkscape:cx="332.08588"
     inkscape:cy="609.4961"
     inkscape:document-units="mm"
     inkscape:current-layer="layer1"
     showgrid="false"
     inkscape:snap-smooth-nodes="true"
     showguides="true"
     inkscape:guide-bbox="true"
     inkscape:window-width="1366"
     inkscape:window-height="705"
     inkscape:window-x="-8"
     inkscape:window-y="-8"
     inkscape:window-maximized="1">
    <inkscape:grid
       type="xygrid"
       id="grid3715" />
  </sodipodi:namedview>
  <metadata
     id="metadata5">
    <rdf:RDF>
      <cc:Work
         rdf:about="">
        <dc:format>image/svg+xml</dc:format>
        <dc:type
           rdf:resource="http://purl.org/dc/dcmitype/StillImage" />
        <dc:title />
      </cc:Work>
    </rdf:RDF>
  </metadata>
  <g
     inkscape:label="Layer 1"
     inkscape:groupmode="layer"
     id="layer1">
    <path
       style="fill:none;stroke:#000000;stroke-width:0.69999999;stroke-linecap:butt;stroke-linejoin:miter;stroke-miterlimit:4;stroke-dasharray:none;stroke-opacity:1"
       d="m 94.59593,177.77633 c 1.24258,-2.83282 -12.961217,41.14351 0,64.82292 3.95173,7.21958 13.89211,8.12831 18.52084,1.32291 12.78505,-18.79725 -0.25465,-67.83044 -1e-5,-66.14583"
       id="path3713"
       inkscape:connector-curvature="0"
       sodipodi:nodetypes="cssc" />
    <path
       style="fill:none;stroke:#000000;stroke-width:1.04999995;stroke-linecap:butt;stroke-linejoin:miter;stroke-miterlimit:4;stroke-dasharray:none;stroke-opacity:1"
       d="m 77.398014,177.77633 h 52.916676 c 0,0 18.39704,-84.790452 -1e-5,-103.187502 -18.39706,-18.397051 -34.519614,-18.397052 -52.916666,0 -18.397052,18.39705 0,103.187502 0,103.187502 z"
       id="path4542"
       inkscape:connector-curvature="0"
       sodipodi:nodetypes="cczzc" />
    <path
       style="fill:none;stroke:#000000;stroke-width:1.04999995;stroke-linecap:butt;stroke-linejoin:miter;stroke-miterlimit:4;stroke-dasharray:none;stroke-opacity:1"
       d="m 113.38135,62.682578 c 0,0 17.19791,17.197917 -9.26042,11.90625 -26.458332,-5.291667 -32.014582,10.31875 -32.014582,10.31875 l -0.367496,0.69889"
       id="path4544"
       inkscape:connector-curvature="0"
       sodipodi:nodetypes="czcc" />
    <path
       style="fill:none;stroke:#000000;stroke-width:1.04999995;stroke-linecap:butt;stroke-linejoin:miter;stroke-miterlimit:4;stroke-dasharray:none;stroke-opacity:1"
       d="m 137.9876,95.490908 c -0.52916,-0.26458 -15.61041,-10.31875 -24.87084,5.556252 -9.26042,15.875 -21.443045,-3.765892 -31.749995,-1.322912 -4.41769,1.047092 -11.90625,6.614582 -11.90625,6.614582"
       id="path4544-8"
       inkscape:connector-curvature="0"
       sodipodi:nodetypes="czac" />
    <path
       style="fill:none;stroke:#000000;stroke-width:1.04999995;stroke-linecap:butt;stroke-linejoin:miter;stroke-miterlimit:4;stroke-dasharray:none;stroke-opacity:1"
       d="m 71.577182,143.11591 c 0,0 7.9375,-18.52083 22.489579,-10.58333 14.552079,7.93749 25.135419,7.9375 27.781259,5.29167 2.64584,-2.64584 15.875,-13.22917 15.875,-13.22917 l 0.52917,0.26458"
       id="path4561"
       inkscape:connector-curvature="0"
       sodipodi:nodetypes="czzcc" />
    <path
       style="fill:none;stroke:#000000;stroke-width:0.69999999;stroke-linecap:butt;stroke-linejoin:miter;stroke-miterlimit:4;stroke-dasharray:none;stroke-opacity:1"
       d="m 94.595928,177.77633 h 18.520832 v 0"
       id="path4563"
       inkscape:connector-curvature="0" />
    <path
       style="fill:#ff9955;stroke-width:1.52304709;stroke-miterlimit:4;stroke-dasharray:none"
       d="m 101.22216,247.69299 c -4.023806,-1.41662 -6.331829,-4.17779 -8.543298,-10.22064 -4.297587,-11.74319 -4.308193,-29.22502 -0.03015,-49.68951 0.643745,-3.07942 1.396688,-6.45759 1.673207,-7.50703 l 0.502762,-1.90808 9.094079,-0.1022 9.09406,-0.1022 0.46368,1.81947 c 1.78472,7.00332 3.60247,17.87796 4.44927,26.6177 1.67177,17.25433 -0.29881,30.85652 -5.47426,37.78684 -2.42102,3.24192 -7.31678,4.68312 -11.22935,3.30565 z"
       id="path839"
       inkscape:connector-curvature="0" />
    <path
       style="fill:#7fff2a;stroke-width:1.0756346;stroke-miterlimit:4;stroke-dasharray:none"
       d="m 76.375145,172.27198 c -1.484688,-7.66813 -2.565753,-14.02409 -3.745064,-22.01857 l -1.052899,-7.1375 1.12117,-1.88538 c 4.670636,-7.85425 11.158719,-11.70516 17.394964,-10.10116 0.855329,0.21998 3.417081,1.49346 5.856118,2.66663 9.057706,4.35668 15.716206,6.51012 21.450086,6.14331 3.00373,-0.19217 3.98763,-1.239 6.45255,-3.41225 3.35324,-2.95649 13.7228,-12.07826 13.87095,-11.93198 0.20283,0.2003 -0.6104,10.13149 -1.55021,17.57814 -1.33096,10.54586 -2.95519,20.501 -5.4821,33.60018 l -0.32472,1.68338 H 103.8725 77.379014 Z"
       id="path841"
       inkscape:connector-curvature="0"
       sodipodi:nodetypes="ssccccccccccccs" />
    <path
       style="fill:#ddff55;stroke-width:1.06691158;stroke-miterlimit:4;stroke-dasharray:none"
       d="m 127.84388,92.448569 c -0.39361,-5.29e-4 -1.3671,0.02791 -1.3671,0.02791 -3.31173,0.143737 -5.24161,1.006001 -7.80311,2.812486 -1.95346,1.377675 -3.32201,2.498876 -5.44568,5.758195 -2.80426,4.30385 -4.72398,6.51625 -8.21189,6.73747 -2.83598,0.17988 -5.086109,-1.12604 -9.34114,-3.31607 -11.166644,-5.747373 -12.580822,-5.338033 -18.031305,-2.63137 -1.290249,0.64073 -3.673241,2.02105 -5.295666,3.06752 l -2.950054,1.90272 0.172548,6.99803 c 0.200077,8.12313 1.389689,23.47977 2.013976,26.33519 0.07231,0.33075 0,0 0.33073,1.11031 0.01452,0.0487 0.989719,-1.01363 1.63505,-2.00587 0.645329,-0.99224 2.045349,-2.80029 3.244921,-3.97627 3.323077,-3.25775 6.058276,-5.2442 9.988333,-5.2442 2.839839,0 5.491473,1.10705 9.658023,3.17174 10.707344,5.30593 19.044644,6.74198 23.965374,4.86963 0.4174,-0.15882 1.39117,-0.87014 2.16365,-1.58078 1.34217,-1.23472 5.91253,-5.00665 12.13799,-10.01748 2.7648,-2.22536 2.89973,-2.38215 3.09751,-3.59461 0.28398,-1.74059 0.28516,-21.82522 0.002,-24.750425 l -0.16194,-2.969686 -1.82755,-0.833593 c -2.82011,-1.306111 -5.21893,-1.867535 -7.97424,-1.870843 z"
       id="path843"
       inkscape:connector-curvature="0"
       sodipodi:nodetypes="cccsssscccssccssccscccccc" />
    <path
       style="fill:#ff2a7f;stroke-width:2.83464575;stroke-miterlimit:4;stroke-dasharray:none"
       d="m 384.26478,403.05363 c -6.86658,-1.81967 -13.74996,-5.44771 -29.65817,-13.89833 -7.46429,-3.96512 -16.46148,-8.46103 -19.33899,-9.66355 -11.43579,-4.77904 -20.72003,-5.60754 -29.26094,-3.42207 -7.87778,2.01577 -20.64608,8.5229 -38.37491,20.25101 0.26786,1.07143 -4.11768,3.15119 -4.11768,3.15119 -0.26786,1.25 0.24054,-11.21899 0.24054,-11.21899 1.60023,-30.25408 5.12558,-57.13138 9.92323,-67.62256 5.4939,-12.0137 17.95356,-24.3255 31.57355,-31.18676 12.79281,-6.44456 25.64847,-10.65096 43.76432,-11.2108 15.04652,-0.46499 27.25424,0.61145 44.5122,3.67776 19.07969,3.38998 20.24479,4.71987 30.63225,4.76866 14.63325,0.0687 20.74944,-2.34605 24.41457,-8.86727 3.58091,-6.37138 1.47867,-15.9218 -6.82529,-27.50772 -2.0625,-2.87766 -9.45903,-12.29099 -6.42857,-8.68113 0.46011,0.54809 9.40621,2.348 16.47189,7.01071 17.74272,11.70858 43.47583,35.65767 49.81447,46.37638 7.00626,11.84765 12.24187,30.51931 15.51573,50.28194 0.82088,4.95522 2.43952,11.9688 2.43952,12.42199 0,0.49716 -3.30294,-1.56161 -5.35003,-2.59744 -10.16828,-5.14514 -22.29733,-8.31421 -33.58534,-8.29488 -22.22441,0.0381 -37.89617,9.25961 -53.64909,33.06928 -6.7822,10.2509 -11.99362,17.86895 -17.01692,20.81901 -6.48285,3.8072 -16.95595,4.6598 -25.69634,2.34357 z"
       id="path846"
       inkscape:connector-curvature="0"
       transform="scale(0.26458333)"
       sodipodi:nodetypes="ssscccssssscsssssssccscs" />
    <path
       style="fill:#ff0000;stroke-width:2.00439715;stroke-miterlimit:4;stroke-dasharray:none"
       d="m 279.0078,306.08974 c 0.57335,-0.7628 6.92576,-14.88111 9.30266,-17.86789 3.21597,-4.04114 13.43541,-14.36563 21.03255,-20.8661 12.83324,-10.98073 25.31426,-19.11537 37.8374,-25.27935 25.01684,-12.31346 50.81511,-17.52867 74.19755,-6.32966 l 5.80305,2.77937 c 0.89286,-1.07143 3.32493,2.32414 4.93207,3.75271 11.78411,10.47477 16.2662,22.76411 16.2681,29.80205 0.001,4.04748 -2.86562,7.81332 -7.07925,9.85582 -4.66155,2.25963 -9.0013,2.75665 -19.89562,2.43838 -9.66121,-0.28225 -14.28761,-1.39049 -27.83285,-3.98012 -15.78762,-3.01832 -22.51555,-4.40512 -37.95469,-4.42746 -9.08331,-0.0131 -15.76818,1.10824 -18.68782,1.53171 -22.56634,3.27304 -38.94343,10.73261 -51.85655,23.5183 -1.96163,1.94227 -6.0666,5.07224 -6.0666,5.07224 z"
       id="path848"
       inkscape:connector-curvature="0"
       transform="scale(0.26458333)"
       sodipodi:nodetypes="ssssscsccscccss" />
  </g>
</svg>
